<?xml version="1.0" encoding="UTF-8"?>
<svg xmlns="http://www.w3.org/2000/svg" xmlns:xlink="http://www.w3.org/1999/xlink" width="50px" height="50px" viewBox="0 0 50 50" version="1.1">
<g id="surface1">
<path style="fill:none;stroke-width:16;stroke-linecap:round;stroke-linejoin:round;stroke:rgb(0%,0%,0%);stroke-opacity:0.901961;stroke-miterlimit:4;" d="M 97.84375 54.65625 C 177.1875 59.53125 213.03125 53 238.03125 53 C 261.3125 53 272.25 129.46875 262.6875 152.0625 C 253.6875 173.34375 100.34375 174.1875 93.1875 165.75 C 84.9375 156 89.71875 115.28125 89.71875 101.3125 " transform="matrix(0.125,0,0,0.125,0,0)"/>
<path style="fill:none;stroke-width:16;stroke-linecap:round;stroke-linejoin:round;stroke:rgb(0%,0%,0%);stroke-opacity:0.901961;stroke-miterlimit:4;" d="M 98.34375 190.6875 C -10.65625 291.5 121.25 273.5 148.21875 295.09375 " transform="matrix(0.125,0,0,0.125,0,0)"/>
<path style="fill:none;stroke-width:16;stroke-linecap:round;stroke-linejoin:round;stroke:rgb(0%,0%,0%);stroke-opacity:0.901961;stroke-miterlimit:4;" d="M 98.34375 190.6875 C 99.78125 213.6875 101.15625 265.6875 100.25 272.90625 " transform="matrix(0.125,0,0,0.125,0,0)"/>
<path style="fill:none;stroke-width:16;stroke-linecap:round;stroke-linejoin:round;stroke:rgb(0%,0%,0%);stroke-opacity:0.901961;stroke-miterlimit:4;" d="M 208.3125 136.25 C 208.3125 131.96875 208.3125 127.6875 208.3125 123.40625 " transform="matrix(0.125,0,0,0.125,0,0)"/>
<path style="fill:none;stroke-width:16;stroke-linecap:round;stroke-linejoin:round;stroke:rgb(0%,0%,0%);stroke-opacity:0.901961;stroke-miterlimit:4;" d="M 177.3125 137.28125 C 177.03125 133.875 177.3125 126.125 177.3125 123.40625 " transform="matrix(0.125,0,0,0.125,0,0)"/>
<path style="fill:none;stroke-width:16;stroke-linecap:round;stroke-linejoin:round;stroke:rgb(0%,0%,0%);stroke-opacity:0.901961;stroke-miterlimit:4;" d="M 203.40625 241.71875 C 352.09375 239.90625 374.875 226.71875 312.53125 341.84375 " transform="matrix(0.125,0,0,0.125,0,0)"/>
<path style="fill:none;stroke-width:16;stroke-linecap:round;stroke-linejoin:round;stroke:rgb(0%,0%,0%);stroke-opacity:0.901961;stroke-miterlimit:4;" d="M 285.5625 345.4375 C 196.8125 341.84375 136.84375 374.21875 178.21875 264.5 " transform="matrix(0.125,0,0,0.125,0,0)"/>
<path style="fill:none;stroke-width:16;stroke-linecap:round;stroke-linejoin:round;stroke:rgb(0%,0%,0%);stroke-opacity:0.901961;stroke-miterlimit:4;" d="M 180.03125 345.4375 C 160.78125 331.375 139.3125 320.21875 120.65625 304.6875 " transform="matrix(0.125,0,0,0.125,0,0)"/>
<path style="fill:none;stroke-width:16;stroke-linecap:round;stroke-linejoin:round;stroke:rgb(0%,0%,0%);stroke-opacity:0.901961;stroke-miterlimit:4;" d="M 218.40625 190.15625 C 219.03125 205.5625 219.59375 220.90625 219.59375 236.3125 " transform="matrix(0.125,0,0,0.125,0,0)"/>
<path style="fill:none;stroke-width:16;stroke-linecap:round;stroke-linejoin:round;stroke:rgb(0%,0%,0%);stroke-opacity:0.901961;stroke-miterlimit:4;" d="M 218.40625 190.15625 C 225.90625 202.03125 232.96875 209.78125 241.78125 230.3125 " transform="matrix(0.125,0,0,0.125,0,0)"/>
<path style="fill:none;stroke-width:16;stroke-linecap:round;stroke-linejoin:round;stroke:rgb(0%,0%,0%);stroke-opacity:0.901961;stroke-miterlimit:4;" d="M 80.125 119.03125 C 75.59375 120.21875 71.0625 120 66.4375 120.40625 " transform="matrix(0.125,0,0,0.125,0,0)"/>
<path style="fill:none;stroke-width:16;stroke-linecap:round;stroke-linejoin:round;stroke:rgb(0%,0%,0%);stroke-opacity:0.901961;stroke-miterlimit:4;" d="M 59.59375 109.46875 C 59.65625 117.75 59.59375 125.90625 58.90625 134.09375 " transform="matrix(0.125,0,0,0.125,0,0)"/>
<path style="fill:none;stroke-width:16;stroke-linecap:round;stroke-linejoin:round;stroke:rgb(0%,0%,0%);stroke-opacity:0.901961;stroke-miterlimit:4;" d="M 277.75 115.625 C 281.15625 115.28125 284.59375 114.8125 288 114.25 " transform="matrix(0.125,0,0,0.125,0,0)"/>
<path style="fill:none;stroke-width:16;stroke-linecap:round;stroke-linejoin:round;stroke:rgb(0%,0%,0%);stroke-opacity:0.901961;stroke-miterlimit:4;" d="M 291.40625 104.6875 C 292.375 110.09375 292.09375 115.625 292.09375 121.09375 " transform="matrix(0.125,0,0,0.125,0,0)"/>
<path style="fill:none;stroke-width:16;stroke-linecap:round;stroke-linejoin:round;stroke:rgb(0%,0%,0%);stroke-opacity:0.901961;stroke-miterlimit:4;" d="M 225.78125 116.46875 C 203.375 114 181.65625 115.1875 160.125 118.5625 " transform="matrix(0.125,0,0,0.125,0,0)"/>
</g>
</svg>
